<?xml version="1.0" encoding="utf-8"?>
<!-- Generator: Adobe Illustrator 16.0.0, SVG Export Plug-In . SVG Version: 6.00 Build 0)  -->
<!DOCTYPE svg PUBLIC "-//W3C//DTD SVG 1.1//EN" "http://www.w3.org/Graphics/SVG/1.1/DTD/svg11.dtd">
<svg version="1.1" id="Layer_1" xmlns="http://www.w3.org/2000/svg" xmlns:xlink="http://www.w3.org/1999/xlink" x="0px" y="0px"
	 width="275px" height="100px" viewBox="0 0 275 100" enable-background="new 0 0 275 100" xml:space="preserve">
<g>
	<rect fill="#D11820" width="275" height="100"/>
	<g>
		<path fill="#FFFFFF" d="M26.709,51.872h-4.502l5.938-18.282h4.106l5.591,18.282h-4.775l-0.618-2.277h-5.072L26.709,51.872z
			 M29.975,40.368l-1.558,5.565h3.043L29.975,40.368z"/>
		<path fill="#FFFFFF" d="M40.146,45.489c0-2.647,0-11.825,0-11.825h4.577c0,0,0,10.142,0,11.677c0,2.35,0.792,2.697,2.597,2.697
			c1.83,0,2.573-0.248,2.573-2.647c0-0.792,0-11.726,0-11.726h4.329c0,0,0,9.129,0,11.776c0,5.344-1.633,6.68-6.927,6.68
			C41.976,52.119,40.146,50.907,40.146,45.489z"/>
		<path fill="#FFFFFF" d="M58.108,51.623l0.619-3.834c0.445,0.1,3.538,0.52,5.195,0.52c1.979,0,2.351-0.198,2.351-1.658
			c0-1.286-0.198-1.459-2.598-2.003c-4.502-1.015-5.591-1.855-5.591-5.963c0-4.057,1.979-5.269,6.333-5.269
			c2.127,0,4.675,0.271,5.665,0.543l-0.693,3.859c-1.212-0.198-3.216-0.495-4.997-0.495c-1.386,0-1.781,0.272-1.781,1.435
			c0,1.287,0.272,1.386,2.498,1.905c4.552,1.063,5.74,1.831,5.74,5.961c0,4.181-1.708,5.493-6.977,5.493
			C60.978,52.119,58.925,51.772,58.108,51.623z"/>
		<path fill="#FFFFFF" d="M76.715,37.647H71.89v-3.983h14.176v4.008h-4.824v14.2h-4.527V37.647z"/>
		<path fill="#FFFFFF" d="M88.839,33.664h4.552v18.208h-4.552V33.664z"/>
		<path fill="#FFFFFF" d="M97.969,33.664h4.255l5.542,9.055v-9.055h4.28v18.208h-3.734l-6.087-9.945v9.945h-4.255V33.664z"/>
		<path fill="#FFFFFF" d="M160.889,37.647h-4.824v-3.983h14.175v4.008h-4.823v14.2h-4.527V37.647z"/>
		<path fill="#FFFFFF" d="M172.395,33.664h11.404v3.983h-6.853v3.142h5.269v3.884h-5.269v3.315h6.853v3.884h-11.404V33.664z"/>
		<path fill="#FFFFFF" d="M200.574,51.872h-4.973l-3.043-5.246c-0.643,0-1.484,0-1.756,0v5.246h-4.479V33.664h7.298
			c4.032,0,5.888,1.311,5.888,6.383c0,3.19-0.766,4.773-2.695,5.442L200.574,51.872z M193.301,42.941
			c1.213,0,1.732-0.643,1.732-2.844c0-2.252-0.619-2.697-1.756-2.697c-0.719,0-2.475,0-2.475,0v5.542
			C191.842,42.941,192.781,42.941,193.301,42.941z"/>
		<path fill="#FFFFFF" d="M216.434,51.872h-4.973l-3.042-5.246c-0.644,0-1.484,0-1.758,0v5.246h-4.478V33.664h7.299
			c4.032,0,5.888,1.311,5.888,6.383c0,3.19-0.767,4.773-2.696,5.442L216.434,51.872z M209.16,42.941
			c1.213,0,1.732-0.643,1.732-2.844c0-2.252-0.618-2.697-1.756-2.697c-0.718,0-2.476,0-2.476,0v5.542
			C207.701,42.941,208.641,42.941,209.16,42.941z"/>
		<path fill="#FFFFFF" d="M218.168,33.664h4.553v18.208h-4.553V33.664z"/>
		<path fill="#FFFFFF" d="M225.814,33.664h11.404v3.983h-6.854v3.142h5.27v3.884h-5.27v3.315h6.854v3.884h-11.404V33.664z"/>
		<path fill="#FFFFFF" d="M253.994,51.872h-4.973l-3.043-5.246c-0.643,0-1.484,0-1.758,0v5.246h-4.477V33.664h7.299
			c4.031,0,5.887,1.311,5.887,6.383c0,3.19-0.767,4.773-2.697,5.442L253.994,51.872z M246.721,42.941
			c1.213,0,1.731-0.643,1.731-2.844c0-2.252-0.618-2.697-1.757-2.697c-0.717,0-2.475,0-2.475,0v5.542
			C245.261,42.941,246.201,42.941,246.721,42.941z"/>
	</g>
	<g>
		<path fill="#FFFFFF" d="M56.602,70.727h5.62v1.802h-3.529v1.204h2.847v1.804h-2.847v1.29h3.529v1.748h-5.62V70.727z"/>
		<path fill="#FFFFFF" d="M66.375,78.574h-2.112l3.071-7.9h1.93l3.071,7.9h-2.218l-0.395-1.088h-2.954L66.375,78.574z
			 M68.251,73.436l-0.885,2.409h1.759L68.251,73.436z"/>
		<path fill="#FFFFFF" d="M75.901,72.528h-2.495v-1.802h7.089v1.802h-2.505v6.046h-2.09V72.528z"/>
		<path fill="#FFFFFF" d="M85.842,70.727h2.165l1.12,4.212l1.077-3.998h1.578l1.077,3.998l1.119-4.212h1.952l-2.228,7.901h-1.536
			l-1.258-4.756l-1.248,4.756H88.07L85.842,70.727z"/>
		<path fill="#FFFFFF" d="M99.248,70.727h5.619v1.802h-3.529v1.204h2.847v1.804h-2.847v1.29h3.529v1.748h-5.619V70.727z"/>
		<path fill="#FFFFFF" d="M108.486,70.727h2.09v6.1h3.529v1.748h-5.619V70.727z"/>
		<path fill="#FFFFFF" d="M117.512,70.727h2.091v6.1h3.528v1.748h-5.619V70.727z"/>
		<path fill="#FFFFFF" d="M149.416,70.727h3.594c1.845,0,2.826,0.32,2.826,1.94c0,1.237-0.459,1.621-1.194,1.823
			c0.725,0.149,1.396,0.566,1.396,1.877c0,1.642-0.756,2.207-2.824,2.207h-3.797V70.727z M153.01,73.829
			c0.438,0,0.726-0.117,0.726-0.735s-0.288-0.703-0.726-0.703c-0.342,0-1.524,0-1.524,0v1.438
			C151.934,73.829,152.754,73.829,153.01,73.829z M153.213,76.953c0.437,0,0.725-0.182,0.725-0.799c0-0.618-0.288-0.821-0.725-0.821
			c-0.342,0-1.728,0-1.728,0v1.62C151.934,76.953,152.957,76.953,153.213,76.953z"/>
		<path fill="#FFFFFF" d="M159.646,70.727h5.619v1.802h-3.529v1.204h2.847v1.804h-2.847v1.29h3.529v1.748h-5.619V70.727z"/>
		<path fill="#FFFFFF" d="M173.67,70.727h2.09v6.1h3.529v1.748h-5.619V70.727z"/>
		<path fill="#FFFFFF" d="M182.217,74.65c0-3.443,1.524-4.052,3.869-4.052c2.357,0,3.85,0.587,3.85,4.03
			c0,3.444-1.514,4.073-3.87,4.073C183.719,78.702,182.217,78.094,182.217,74.65z M187.75,74.96c0-0.106,0-0.575,0-0.618
			c0-1.482-0.373-1.974-1.685-1.974c-1.301,0-1.663,0.47-1.663,1.952c0,0.042,0,0.512,0,0.618c0,1.481,0.384,2.036,1.684,2.036
			C187.398,76.975,187.75,76.441,187.75,74.96z"/>
		<path fill="#FFFFFF" d="M192.809,74.65c0-3.252,1.312-4.02,3.731-4.02c1.461,0,1.897,0.139,2.292,0.203l-0.319,1.76
			c-0.746-0.108-1.161-0.161-1.994-0.161c-1.258,0-1.524,0.555-1.524,1.888c0,0.042,0,0.5,0,0.618c0,1.301,0.256,1.994,1.546,1.994
			c1.151,0,1.737-0.182,1.973-0.225l0.319,1.728c-0.373,0.085-0.854,0.234-2.313,0.234C194.045,78.67,192.809,77.902,192.809,74.65z
			"/>
		<path fill="#FFFFFF" d="M203.199,78.574h-2.111l3.071-7.9h1.929l3.07,7.9h-2.217l-0.395-1.088h-2.953L203.199,78.574z
			 M205.076,73.436l-0.885,2.409h1.759L205.076,73.436z"/>
		<path fill="#FFFFFF" d="M211.841,70.727h2.089v6.1h3.529v1.748h-5.618V70.727z"/>
	</g>
	<g>
		<path fill="#FFB602" d="M140.807,72.482l-3.498,2.54l1.344,4.126l-3.504-2.548l-3.509,2.548l1.343-4.126l-3.487-2.54h4.311
			l1.343-4.111l1.338,4.111H140.807z"/>
	</g>
	<rect x="156.035" y="26.886" fill="#FFB602" width="97.73" height="1.818"/>
	<rect x="156.035" y="57.271" fill="#FFB602" width="97.73" height="1.816"/>
	<rect x="21.468" y="26.886" fill="#FFB602" width="92.086" height="1.818"/>
	<rect x="21.468" y="57.271" fill="#FFB602" width="92.086" height="1.816"/>
	<circle fill="#FFFFFF" cx="135.223" cy="42.986" r="17.58"/>
	<g>
		<path d="M136.438,57.975l0.026-4.977c0.863-0.285,1.508-0.77,1.826-1.181c0.978-1.255,0.72-2.777,0.687-2.946
			c-0.107-0.578-0.613-0.994-1.201-0.994h-5.255c-0.587,0-1.09,0.416-1.201,0.994c-0.033,0.168-0.291,1.691,0.688,2.946
			c0.323,0.416,0.977,0.918,1.861,1.202l0.026,4.953c-1.074-0.094-2.129-0.297-3.152-0.609l-0.75,2.43
			c1.656,0.508,3.381,0.771,5.128,0.782v0.004c0.021,0,0.037-0.002,0.059-0.002c0.021,0,0.039,0.002,0.058,0.002v-0.004
			c1.748-0.012,3.474-0.274,5.126-0.782l-0.748-2.43C138.582,57.682,137.52,57.883,136.438,57.975z"/>
		<g>
			<g>
				<path d="M150.588,34.158c2.818-3.926,2.368-6.955,0.875-12.295c-0.953-3.416-1.433-4.384-2.083-5.599
					c-0.553-1.03-1.412-2.663-3.238-0.651c-3.823,4.209-5.407,8.024-6.388,9.996c-1.456-0.403-2.987-0.625-4.569-0.641v-0.003V24.96
					c-0.021,0-0.041,0.003-0.062,0.003l0,0V24.96c-0.011,0-0.02,0-0.03,0.001c-0.008-0.001-0.017-0.001-0.027-0.001v0.003l0,0
					c-0.02,0-0.041-0.003-0.062-0.003v0.004v0.003c-1.582,0.015-3.112,0.237-4.571,0.641c-0.979-1.972-2.563-5.787-6.387-9.996
					c-1.825-2.012-2.685-0.378-3.237,0.651c-0.651,1.215-1.129,2.183-2.083,5.599c-1.494,5.34-1.943,8.369,0.874,12.295
					c-1.416,2.553-2.225,5.489-2.225,8.61c0,6.476,3.522,12.448,9.192,15.589c0.349,0.193,0.709,0.377,1.068,0.547l0.268,0.123
					l0.012-0.002c-0.915-1.845-1.406-3.771-1.323-5.613c0.013-1.6,0.481-3.878,2.4-6.35c0.255-0.328,6.92-7.287,2.462-19.093
					c1.167-0.296,2.385-0.453,3.639-0.46c1.256,0.007,2.475,0.164,3.642,0.46c-4.458,11.807,2.207,18.765,2.463,19.093
					c1.916,2.472,2.387,4.75,2.398,6.35c0.083,1.843-0.408,3.769-1.323,5.613l0.013,0.002l0.268-0.123
					c0.357-0.17,0.72-0.354,1.068-0.547c5.668-3.141,9.193-9.113,9.193-15.589C152.814,39.647,152.005,36.711,150.588,34.158z
					 M126.791,43.453c-1.478,0-2.673-1.196-2.673-2.672c0-1.475,1.196-2.67,2.673-2.67c1.476,0,2.67,1.196,2.67,2.67
					C129.461,42.257,128.267,43.453,126.791,43.453z M143.396,43.453c-1.475,0-2.67-1.196-2.67-2.672c0-1.475,1.195-2.67,2.67-2.67
					c1.479,0,2.674,1.196,2.674,2.67C146.07,42.257,144.875,43.453,143.396,43.453z"/>
			</g>
		</g>
	</g>
</g>
</svg>
