<?xml version="1.0" encoding="utf-8"?>
<!-- Generator: Adobe Illustrator 16.0.0, SVG Export Plug-In . SVG Version: 6.00 Build 0)  -->
<!DOCTYPE svg PUBLIC "-//W3C//DTD SVG 1.1//EN" "http://www.w3.org/Graphics/SVG/1.1/DTD/svg11.dtd">
<svg version="1.1" id="Layer_1" xmlns="http://www.w3.org/2000/svg" xmlns:xlink="http://www.w3.org/1999/xlink" x="0px" y="0px"
	 width="800px" height="221.875px" viewBox="0 0 800 221.875" enable-background="new 0 0 800 221.875" xml:space="preserve">
<g>
	<g>
		<g>
			<path fill="#D11820" d="M18.035,128.032H2.545l20.428-62.897h14.128l19.235,62.897H39.909l-2.127-7.831H20.333L18.035,128.032z
				 M29.27,88.454l-5.362,19.15h10.47L29.27,88.454z"/>
			<path fill="#D11820" d="M64.261,106.072c0-9.105,0-40.685,0-40.685h15.747c0,0,0,34.897,0,40.174
				c0,8.085,2.724,9.277,8.937,9.277c6.297,0,8.851-0.85,8.851-9.105c0-2.725,0-40.346,0-40.346h14.895c0,0,0,31.409,0,40.515
				c0,18.387-5.618,22.98-23.83,22.98C70.56,128.883,64.261,124.712,64.261,106.072z"/>
			<path fill="#D11820" d="M126.062,127.179l2.129-13.189c1.532,0.342,12.172,1.787,17.874,1.787c6.808,0,8.085-0.68,8.085-5.703
				c0-4.427-0.68-5.02-8.937-6.895c-15.49-3.493-19.234-6.382-19.234-20.513c0-13.957,6.808-18.126,21.789-18.126
				c7.319,0,16.084,0.932,19.489,1.87l-2.383,13.277c-4.171-0.679-11.065-1.705-17.192-1.705c-4.767,0-6.128,0.939-6.128,4.94
				c0,4.424,0.936,4.767,8.595,6.554c15.66,3.661,19.747,6.296,19.747,20.51c0,14.386-5.873,18.896-24.002,18.896
				C135.937,128.883,128.872,127.688,126.062,127.179z"/>
			<path fill="#D11820" d="M190.078,79.092h-16.599V65.388h48.77v13.791h-16.596v48.854h-15.575V79.092z"/>
			<path fill="#D11820" d="M231.791,65.388h15.661v62.645h-15.661V65.388z"/>
			<path fill="#D11820" d="M263.202,65.388h14.64l19.064,31.151V65.388h14.726v62.645h-12.851l-20.939-34.216v34.216h-14.64V65.388z
				"/>
			<path fill="#D11820" d="M479.675,79.092h-16.598V65.388h48.77v13.791h-16.596v48.854h-15.576V79.092z"/>
			<path fill="#D11820" d="M519.261,65.388h39.237v13.704h-23.577V89.9h18.129v13.365h-18.129v11.401h23.577v13.365h-39.237V65.388z
				"/>
			<path fill="#D11820" d="M616.212,128.032h-17.107l-10.468-18.046c-2.212,0-5.108,0-6.044,0v18.046h-15.405V65.388h25.109
				c13.872,0,20.255,4.516,20.255,21.959c0,10.98-2.639,16.427-9.277,18.726L616.212,128.032z M591.188,97.305
				c4.172,0,5.959-2.213,5.959-9.788c0-7.744-2.127-9.273-6.043-9.273c-2.468,0-8.512,0-8.512,0v19.062
				C586.167,97.305,589.401,97.305,591.188,97.305z"/>
			<path fill="#D11820" d="M670.776,128.032h-17.107L643.2,109.986c-2.212,0-5.107,0-6.044,0v18.046h-15.404V65.388h25.108
				c13.873,0,20.256,4.516,20.256,21.959c0,10.98-2.639,16.427-9.277,18.726L670.776,128.032z M645.753,97.305
				c4.172,0,5.957-2.213,5.957-9.788c0-7.744-2.125-9.273-6.041-9.273c-2.469,0-8.513,0-8.513,0v19.062
				C640.731,97.305,643.966,97.305,645.753,97.305z"/>
			<path fill="#D11820" d="M676.743,65.388h15.662v62.645h-15.662V65.388z"/>
			<path fill="#D11820" d="M703.048,65.388h39.236v13.704h-23.576V89.9h18.131v13.365h-18.131v11.401h23.576v13.365h-39.236V65.388z
				"/>
			<path fill="#D11820" d="M800,128.032h-17.107l-10.47-18.046c-2.211,0-5.107,0-6.043,0v18.046h-15.404V65.388h25.109
				c13.872,0,20.254,4.516,20.254,21.959c0,10.98-2.638,16.427-9.276,18.726L800,128.032z M774.977,97.305
				c4.172,0,5.957-2.213,5.957-9.788c0-7.744-2.126-9.273-6.041-9.273c-2.47,0-8.513,0-8.513,0v19.062
				C769.955,97.305,773.19,97.305,774.977,97.305z"/>
		</g>
		<g>
			<path d="M120.873,192.896h19.332v6.198h-12.141v4.144h9.794v6.199h-9.794v4.439h12.141v6.015h-19.332V192.896z"/>
			<path d="M154.496,219.892h-7.264l10.565-27.181h6.639L175,219.892h-7.629l-1.357-3.74h-10.162L154.496,219.892z M160.951,202.21
				l-3.044,8.292h6.053L160.951,202.21z"/>
			<path d="M187.272,199.095h-8.585v-6.198h24.396v6.198h-8.62v20.797h-7.191V199.095z"/>
			<path d="M221.473,192.896h7.445l3.853,14.486l3.706-13.756h5.429l3.705,13.756l3.85-14.486h6.715l-7.667,27.177h-5.284
				l-4.329-16.357l-4.292,16.357h-5.466L221.473,192.896z"/>
			<path d="M267.593,192.896h19.332v6.198h-12.141v4.144h9.793v6.199h-9.793v4.439h12.141v6.015h-19.332V192.896z"/>
			<path d="M299.379,192.896h7.191v20.98h12.14v6.015h-19.331V192.896z"/>
			<path d="M330.432,192.896h7.19v20.98h12.143v6.015h-19.333V192.896z"/>
			<path d="M440.198,192.896h12.363c6.345,0,9.721,1.096,9.721,6.676c0,4.254-1.578,5.576-4.109,6.27
				c2.496,0.513,4.807,1.944,4.807,6.458c0,5.647-2.604,7.592-9.722,7.592h-13.06V192.896z M452.562,203.569
				c1.504,0,2.494-0.402,2.494-2.534c0-2.126-0.99-2.42-2.494-2.42c-1.173,0-5.246,0-5.246,0v4.954
				C448.858,203.569,451.68,203.569,452.562,203.569z M453.258,214.317c1.505,0,2.494-0.626,2.494-2.75
				c0-2.13-0.989-2.826-2.494-2.826c-1.174,0-5.942,0-5.942,0v5.576C448.858,214.317,452.379,214.317,453.258,214.317z"/>
			<path d="M475.395,192.896h19.333v6.198h-12.143v4.144h9.794v6.199h-9.794v4.439h12.143v6.015h-19.333V192.896z"/>
			<path d="M523.641,192.896h7.19v20.98h12.143v6.015h-19.333V192.896z"/>
			<path d="M553.046,206.393c0-11.85,5.246-13.938,13.316-13.938c8.105,0,13.241,2.015,13.241,13.864
				c0,11.849-5.208,14.015-13.315,14.015C558.217,220.334,553.046,218.245,553.046,206.393z M572.084,207.456
				c0-0.367,0-1.981,0-2.128c0-5.097-1.284-6.786-5.796-6.786c-4.477,0-5.723,1.614-5.723,6.715c0,0.148,0,1.761,0,2.126
				c0,5.101,1.32,7.006,5.797,7.006C570.873,214.389,572.084,212.557,572.084,207.456z"/>
			<path d="M589.486,206.393c0-11.188,4.513-13.827,12.84-13.827c5.026,0,6.529,0.476,7.887,0.694l-1.101,6.052
				c-2.566-0.367-3.997-0.549-6.86-0.549c-4.328,0-5.245,1.907-5.245,6.494c0,0.148,0,1.726,0,2.126
				c0,4.477,0.882,6.859,5.319,6.859c3.962,0,5.978-0.624,6.786-0.77l1.101,5.943c-1.284,0.296-2.935,0.807-7.961,0.807
				C593.741,220.223,589.486,217.582,589.486,206.393z"/>
			<path d="M625.236,219.892h-7.264l10.563-27.181h6.64l10.563,27.181h-7.628l-1.356-3.74h-10.164L625.236,219.892z M631.691,202.21
				l-3.044,8.292h6.052L631.691,202.21z"/>
			<path d="M654.966,192.896h7.191v20.98h12.141v6.015h-19.332V192.896z"/>
		</g>
		<g>
			<path fill="#D11820" d="M410.577,198.927l-12.033,8.758l4.623,14.19l-12.056-8.766l-12.077,8.766l4.622-14.19l-12-8.758h14.833
				l4.622-14.127l4.598,14.127H410.577z"/>
		</g>
		<rect x="462.97" y="42.074" fill="#FFFFFF" width="336.242" height="6.253"/>
		<rect x="462.97" y="146.604" fill="#FFFFFF" width="336.242" height="6.256"/>
		<rect y="42.074" fill="#FFFFFF" width="316.819" height="6.253"/>
		<rect y="146.604" fill="#FFFFFF" width="316.819" height="6.256"/>
		<path fill="#FFFFFF" d="M451.228,97.212c0,33.394-27.074,60.479-60.483,60.479c-33.406,0-60.484-27.086-60.484-60.479
			c0-33.412,27.079-60.491,60.484-60.491C424.153,36.721,451.228,63.8,451.228,97.212z"/>
		<g>
			<path d="M395.543,149.033l0.095-17.129c2.975-0.98,5.19-2.645,6.285-4.06c3.355-4.321,2.477-9.56,2.361-10.141
				c-0.371-1.981-2.109-3.42-4.128-3.42h-18.081c-2.023,0-3.761,1.438-4.133,3.42c-0.112,0.581-0.993,5.819,2.361,10.141
				c1.113,1.431,3.359,3.155,6.4,4.137l0.092,17.04c-3.691-0.327-7.323-1.028-10.843-2.098l-2.576,8.361
				c5.695,1.745,11.625,2.646,17.634,2.688v0.012c0.072,0,0.13,0,0.203,0c0.07,0,0.136,0,0.204,0v-0.012
				c6.008-0.042,11.94-0.943,17.634-2.688l-2.574-8.361C402.926,148.014,399.262,148.71,395.543,149.033z"/>
			<g>
				<g>
					<path d="M444.229,67.085c9.694-13.506,8.146-23.924,3.013-42.296c-3.283-11.751-4.929-15.087-7.173-19.264
						c-1.9-3.549-4.858-9.154-11.139-2.244c-13.151,14.477-18.603,27.603-21.97,34.4c-5.02-1.399-10.286-2.165-15.731-2.216v-0.011
						v-0.006c-0.066,0-0.134,0.006-0.206,0.006l0,0v-0.006c-0.037,0-0.066,0-0.102,0c-0.031,0-0.061,0-0.099,0v0.006h-0.001
						c-0.07,0-0.135-0.006-0.208-0.006v0.006v0.011c-5.44,0.051-10.71,0.816-15.729,2.216c-3.363-6.798-8.819-19.924-21.966-34.4
						c-6.287-6.91-9.24-1.305-11.142,2.244c-2.241,4.177-3.887,7.513-7.168,19.264c-5.133,18.372-6.685,28.79,3.011,42.296
						c-4.875,8.795-7.659,18.89-7.659,29.621c0,22.281,12.117,42.841,31.619,53.639c1.202,0.665,2.448,1.303,3.68,1.877l0.921,0.424
						l0.039-0.012c-3.145-6.344-4.84-12.966-4.542-19.304c0.041-5.508,1.65-13.357,8.244-21.85
						c0.89-1.129,23.812-25.079,8.478-65.691c4.015-1.011,8.206-1.558,12.522-1.577c4.323,0.02,8.516,0.566,12.527,1.577
						c-15.333,40.612,7.585,64.562,8.477,65.691c6.597,8.492,8.201,16.342,8.246,21.85c0.294,6.338-1.395,12.96-4.545,19.304
						l0.045,0.012l0.916-0.424c1.234-0.574,2.479-1.212,3.678-1.877c19.506-10.798,31.623-31.357,31.623-53.639
						C451.888,85.975,449.103,75.88,444.229,67.085z M362.354,99.067c-5.082,0-9.195-4.125-9.195-9.192
						c0-5.075,4.113-9.187,9.195-9.187c5.074,0,9.196,4.111,9.196,9.187C371.549,94.942,367.428,99.067,362.354,99.067z
						 M419.493,99.067c-5.076,0-9.195-4.125-9.195-9.192c0-5.075,4.119-9.187,9.195-9.187c5.081,0,9.195,4.111,9.195,9.187
						C428.688,94.942,424.574,99.067,419.493,99.067z"/>
				</g>
			</g>
		</g>
	</g>
</g>
</svg>
