<?xml version="1.0" encoding="utf-8"?>
<!-- Generator: Adobe Illustrator 16.0.0, SVG Export Plug-In . SVG Version: 6.00 Build 0)  -->
<!DOCTYPE svg PUBLIC "-//W3C//DTD SVG 1.1//EN" "http://www.w3.org/Graphics/SVG/1.1/DTD/svg11.dtd">
<svg version="1.1" id="Layer_1" xmlns="http://www.w3.org/2000/svg" xmlns:xlink="http://www.w3.org/1999/xlink" x="0px" y="0px"
	 width="320px" height="320px" viewBox="0 0 320 320" enable-background="new 0 0 320 320" xml:space="preserve">
<rect y="0.193" fill="#CD942D" width="320" height="320"/>
<rect x="80" y="80.193" fill="#FFB602" width="160" height="159.999"/>
<g>
	<polygon fill="#FFFFFF" points="127.457,111.76 142.977,207.119 175.297,207.119 188.896,113.52 	"/>
	<path fill="#FFB602" d="M178.212,203.771h-26.069l-11.58-72.294h49.231L178.212,203.771z"/>
	<path fill="#0A0D16" d="M177.611,207.517l15.249-95.182c0.132-0.819-0.085-1.689-0.665-2.37s-1.405-1.031-2.235-1.031h-62.161
		c-0.83,0-1.654,0.351-2.235,1.031s-0.796,1.551-0.665,2.37l15.249,95.182c0.053,0.332,0.163,0.658,0.329,0.958
		s0.389,0.576,0.665,0.812c0.139,0.117,0.284,0.221,0.437,0.308c0.455,0.265,0.963,0.395,1.469,0.395h31.665
		c0.507,0,1.014-0.13,1.47-0.395c0.152-0.087,0.297-0.19,0.436-0.308c0.277-0.236,0.5-0.513,0.665-0.812
		C177.448,208.175,177.559,207.849,177.611,207.517z M171.914,203.771h-26.068l-14.197-88.618h54.463L171.914,203.771z"/>
	<circle fill="#FFFFFF" cx="163.543" cy="154.797" r="4.664"/>
	<circle fill="#FFFFFF" cx="154.215" cy="145.47" r="2.332"/>
</g>
</svg>
