<?xml version="1.0" encoding="utf-8"?>
<!-- Generator: Adobe Illustrator 16.0.0, SVG Export Plug-In . SVG Version: 6.00 Build 0)  -->
<!DOCTYPE svg PUBLIC "-//W3C//DTD SVG 1.1//EN" "http://www.w3.org/Graphics/SVG/1.1/DTD/svg11.dtd">
<svg version="1.1" id="Layer_1" xmlns="http://www.w3.org/2000/svg" xmlns:xlink="http://www.w3.org/1999/xlink" x="0px" y="0px"
	 width="700px" height="907.047px" viewBox="0 0 700 907.047" enable-background="new 0 0 700 907.047" xml:space="preserve">
<g>
	<path fill="#00355A" d="M376.546,855.605l0.515-98.291c17.044-5.65,29.775-15.215,36.054-23.314
		c19.31-24.798,14.232-54.866,13.564-58.198c-2.109-11.413-12.111-19.639-23.715-19.639H299.161
		c-11.597,0-21.535,8.226-23.702,19.639c-0.655,3.332-5.739,33.4,13.576,58.198c6.367,8.203,19.292,18.119,36.756,23.75
		l0.516,97.823c-21.213-1.852-42.063-5.867-62.262-12.037l-14.812,47.967c32.697,10.062,66.766,15.234,101.296,15.473v0.071
		c0.411,0,0.728-0.042,1.147-0.042c0.412,0,0.768,0.042,1.137,0.042v-0.071c34.521-0.238,68.605-5.411,101.25-15.473l-14.775-47.967
		C418.883,849.81,397.899,853.797,376.546,855.605z"/>
	<g>
		<g>
			<path fill="#00355A" d="M656.022,385.181c55.662-77.56,46.777-137.389,17.282-242.86c-18.834-67.47-28.286-86.603-41.132-110.592
				c-10.91-20.336-27.889-52.599-63.967-12.867c-75.504,83.136-106.809,158.492-126.164,197.447
				c-28.781-7.978-59.007-12.365-90.271-12.664v-0.07v-0.081c-0.403,0-0.79,0.058-1.206,0.058l0,0v-0.058
				c-0.21,0-0.393,0-0.609,0.022c-0.165-0.022-0.333-0.022-0.539-0.022v0.058l0,0c-0.398,0-0.808-0.058-1.207-0.058v0.081v0.07
				c-31.245,0.299-61.483,4.686-90.281,12.664c-19.351-38.955-50.643-114.311-126.16-197.447
				c-36.047-39.731-53.05-7.469-63.955,12.867C54.959,55.718,45.512,74.851,26.672,142.32
				c-29.513,105.472-38.38,165.3,17.271,242.86C15.978,435.606,0,493.594,0,555.247c0,127.917,69.573,245.896,181.565,307.917
				c6.886,3.824,14.008,7.453,21.1,10.786l5.277,2.449l0.247-0.04c-18.075-36.453-27.791-74.475-26.133-110.882
				c0.257-31.576,9.511-76.585,47.393-125.42c5.048-6.486,136.688-143.928,48.633-377.139c23.053-5.838,47.117-8.948,71.874-9.082
				c24.833,0.134,48.897,3.244,71.955,9.082c-88.079,233.211,43.569,370.652,48.624,377.139
				c37.862,48.835,47.135,93.844,47.374,125.42c1.646,36.407-8.029,74.429-26.127,110.882l0.26,0.04l5.281-2.449
				c7.069-3.333,14.22-6.962,21.09-10.786C630.404,801.143,700,683.164,700,555.247C700,493.594,684.011,435.606,656.022,385.181z
				 M185.987,568.782c-29.19,0-52.805-23.639-52.805-52.781c0-29.136,23.615-52.752,52.805-52.752
				c29.137,0,52.745,23.616,52.745,52.752C238.732,545.144,215.124,568.782,185.987,568.782z M513.99,568.782
				c-29.142,0-52.744-23.639-52.744-52.781c0-29.136,23.603-52.752,52.744-52.752c29.191,0,52.805,23.616,52.805,52.752
				C566.794,545.144,543.181,568.782,513.99,568.782z"/>
		</g>
	</g>
</g>
</svg>
