<?xml version="1.0" encoding="utf-8"?>
<!-- Generator: Adobe Illustrator 16.0.0, SVG Export Plug-In . SVG Version: 6.00 Build 0)  -->
<!DOCTYPE svg PUBLIC "-//W3C//DTD SVG 1.1//EN" "http://www.w3.org/Graphics/SVG/1.1/DTD/svg11.dtd">
<svg version="1.1" id="Layer_1" xmlns="http://www.w3.org/2000/svg" xmlns:xlink="http://www.w3.org/1999/xlink" x="0px" y="0px"
	 width="140px" height="140px" viewBox="0 0 140 140" enable-background="new 0 0 140 140" xml:space="preserve">
<circle fill="#FFFFFF" cx="70" cy="70" r="70"/>
<g>
	<g>
		<path fill="#1A5EAB" d="M53.19,104.483c-0.234-0.1-0.666-0.157-0.979-0.157c-1.449,0-2.605,1.079-2.605,3.623
			c0,2.545,1.175,3.503,3.056,3.503c0.88,0,2.232-0.253,3.191-0.605c0.059,0.568-0.156,1.528-0.489,2.056
			c-0.823,0.45-2.213,0.843-3.446,0.843c-3.271,0-5.463-2.33-5.463-5.521c0-3.445,2.369-5.778,6.05-5.778
			c1.312,0,2.468,0.314,3.525,0.9c0.039,0.195,0.039,0.433,0.039,0.688c0,0.822-0.176,1.801-0.352,2.348
			c-0.725,0-1.939-0.272-2.527-0.547V104.483z"/>
		<path fill="#1A5EAB" d="M62.1,110.162l-0.099,0.274c-0.078,0.233-0.313,0.646-0.509,0.881c0.274,0.038,0.823,0.175,1.038,0.272
			c0.176,0.395,0.333,1.235,0.353,1.763h-5.052c0.039-0.567,0.156-1.192,0.333-1.525c0.293-0.237,0.744-0.472,1.057-0.588
			l3.897-8.557l2.349-0.295l4.015,9.027c0.255,0.02,0.627,0.098,0.862,0.175c0.196,0.433,0.373,1.157,0.411,1.763h-5.835
			c0.059-0.527,0.293-1.253,0.528-1.665c0.255-0.117,0.705-0.253,0.92-0.293c-0.215-0.195-0.431-0.647-0.548-0.939l-0.117-0.293
			H62.1z M63.803,105.246c-0.078,0.548-0.333,1.353-0.549,1.898l-0.568,1.392h2.409l-0.588-1.392
			c-0.196-0.448-0.411-1.351-0.47-1.898H63.803z"/>
		<path fill="#1A5EAB" d="M79.917,111.355c0.059-0.391,0.216-0.998,0.393-1.408c0.469-0.1,1.41-0.158,1.997-0.1v3.505h-9.752
			c0.039-0.508,0.195-1.213,0.333-1.545c0.314-0.237,0.744-0.433,1.117-0.568v-6.561c-0.392-0.04-0.979-0.176-1.273-0.295
			c-0.098-0.448-0.118-1.233-0.059-1.644H78.9c0.059,0.37,0.019,1.233-0.079,1.665c-0.451,0.117-1.332,0.233-1.899,0.273v6.892
			C77.823,111.57,79.095,111.513,79.917,111.355z"/>
		<path fill="#1A5EAB" d="M91.627,111.355c0.059-0.391,0.216-0.998,0.391-1.408c0.47-0.1,1.41-0.158,1.998-0.1v3.505h-9.752
			c0.039-0.508,0.195-1.213,0.333-1.545c0.313-0.237,0.744-0.433,1.115-0.568v-6.561c-0.391-0.04-0.979-0.176-1.272-0.295
			c-0.098-0.448-0.117-1.233-0.059-1.644h6.227c0.06,0.37,0.02,1.233-0.078,1.665c-0.449,0.117-1.331,0.233-1.898,0.273v6.892
			C89.533,111.57,90.805,111.513,91.627,111.355z"/>
	</g>
</g>
<g>
	<g>
		<path fill="#1A5EAB" d="M82.684,24.161H57.316c-3.503,0-6.342,2.838-6.342,6.342v50.735c0,3.502,2.839,6.34,6.342,6.34h25.367
			c3.502,0,6.343-2.838,6.343-6.34V30.503C89.027,27,86.187,24.161,82.684,24.161z M70,84.409c-1.751,0-3.17-1.42-3.17-3.171
			s1.419-3.171,3.17-3.171c1.751,0,3.171,1.42,3.171,3.171S71.751,84.409,70,84.409z M82.684,74.896H57.316V30.503h25.367V74.896z"
			/>
		<path fill="#1A5EAB" d="M65.243,60.626h3.171v-3.171h3.171v3.171h3.171v-3.171h3.171v-3.169h-3.171v-3.173h3.171v-3.169h-3.171
			v-3.173h-3.171v3.173h-3.171v-3.173h-3.171v3.173h-3.17v3.169h3.17v3.173h-3.17v3.169h3.17V60.626z M68.415,51.113h3.171v3.173
			h-3.171V51.113z"/>
	</g>
</g>
</svg>
