<?xml version="1.0" encoding="utf-8"?>
<!-- Generator: Adobe Illustrator 16.0.0, SVG Export Plug-In . SVG Version: 6.00 Build 0)  -->
<!DOCTYPE svg PUBLIC "-//W3C//DTD SVG 1.1//EN" "http://www.w3.org/Graphics/SVG/1.1/DTD/svg11.dtd">
<svg version="1.1" id="Layer_1" xmlns="http://www.w3.org/2000/svg" xmlns:xlink="http://www.w3.org/1999/xlink" x="0px" y="0px"
	 width="32.49px" height="32.49px" viewBox="0 0 32.49 32.49" enable-background="new 0 0 32.49 32.49" xml:space="preserve">
<path fill="#E6E4E2" d="M30.696,0H1.792C0.802,0,0,0.803,0,1.793v28.904c0,0.99,0.802,1.793,1.792,1.793h15.562V19.908H13.12v-4.903
	h4.234v-3.616c0-4.196,2.562-6.481,6.306-6.481c1.793,0,3.336,0.134,3.784,0.192v4.387l-2.597,0.001c-2.035,0-2.43,0.967-2.43,2.387
	v3.131h4.855l-0.633,4.903h-4.223V32.49h8.278c0.991,0,1.794-0.803,1.794-1.793V1.793C32.49,0.803,31.687,0,30.696,0z"/>
</svg>
