<?xml version="1.0" encoding="utf-8"?>
<!-- Generator: Adobe Illustrator 16.0.0, SVG Export Plug-In . SVG Version: 6.00 Build 0)  -->
<!DOCTYPE svg PUBLIC "-//W3C//DTD SVG 1.1//EN" "http://www.w3.org/Graphics/SVG/1.1/DTD/svg11.dtd">
<svg version="1.1" id="Layer_1" xmlns="http://www.w3.org/2000/svg" xmlns:xlink="http://www.w3.org/1999/xlink" x="0px" y="0px"
	 width="140.001px" height="140px" viewBox="0 0 140.001 140" enable-background="new 0 0 140.001 140" xml:space="preserve">
<g>
	<circle fill="#FFFFFF" cx="70" cy="70" r="70"/>
	<g>
		<g>
			<path fill="#1A5EAB" d="M55.385,111.355c0.059-0.391,0.215-0.998,0.392-1.408c0.469-0.1,1.41-0.158,1.997-0.1v3.505h-9.751
				c0.039-0.508,0.195-1.213,0.332-1.545c0.313-0.237,0.744-0.433,1.116-0.568v-6.561c-0.392-0.04-0.979-0.176-1.272-0.295
				c-0.098-0.448-0.118-1.233-0.059-1.644h6.228c0.059,0.37,0.019,1.233-0.079,1.665c-0.451,0.117-1.332,0.233-1.899,0.273v6.892
				C53.29,111.57,54.562,111.513,55.385,111.355z"/>
			<path fill="#1A5EAB" d="M64.098,111.297c0.352,0.059,1.077,0.233,1.411,0.391c0.058,0.257,0.096,0.688,0.096,1.078
				c0,0.234-0.019,0.452-0.039,0.587H59.73c0.04-0.508,0.196-1.213,0.333-1.545c0.313-0.237,0.744-0.433,1.116-0.568v-6.561
				c-0.393-0.04-0.979-0.176-1.274-0.295c-0.098-0.448-0.117-1.233-0.058-1.644h5.661c0.058,0.45,0.038,1.233-0.06,1.665
				c-0.313,0.117-0.939,0.233-1.351,0.273V111.297z"/>
			<path fill="#1A5EAB" d="M73.594,107.047l1.254-1.546c0.214-0.255,0.606-0.625,0.9-0.822c-0.255-0.059-0.646-0.195-0.842-0.315
				c-0.177-0.448-0.274-1.173-0.274-1.623h5.189c0,0.488-0.156,1.312-0.312,1.743c-0.255,0.117-0.764,0.234-1.077,0.295
				l-2.625,2.953c1.332,1.766,2.858,3.311,3.348,3.703l1.116-0.1c0.02,0.117,0.02,0.235,0.02,0.295c0,0.588-0.196,1.333-0.391,1.783
				c-0.725,0.155-1.626,0.253-2.409,0.294c-0.979-0.667-2.604-2.625-4.113-4.878h-1.037v2.506c0.333,0.06,0.939,0.215,1.253,0.393
				c0.098,0.393,0.137,1.235,0.058,1.625h-5.678c0.039-0.508,0.196-1.213,0.333-1.545c0.314-0.237,0.744-0.433,1.117-0.568v-6.561
				c-0.393-0.04-0.98-0.176-1.274-0.295c-0.098-0.448-0.118-1.233-0.059-1.644h5.366c0.059,0.37,0.021,1.233-0.058,1.665
				c-0.216,0.117-0.744,0.233-1.057,0.273v2.368H73.594z"/>
			<path fill="#1A5EAB" d="M89.631,111.492c0.059-0.293,0.215-0.822,0.352-1.056c0.529-0.119,1.431-0.217,2.096-0.177v3.093h-9.947
				c0.039-0.508,0.194-1.213,0.332-1.545c0.314-0.237,0.745-0.433,1.117-0.568v-6.561c-0.392-0.04-0.979-0.176-1.272-0.295
				c-0.099-0.448-0.118-1.233-0.06-1.644h9.557v2.996c-0.627,0-1.489-0.098-2.057-0.253c-0.176-0.295-0.313-0.57-0.411-0.923h-2.84
				v2.546h2.057c0.099-0.215,0.256-0.431,0.45-0.607c0.393-0.118,1.096-0.213,1.605-0.213v3.424c-0.548,0.06-1.312,0-1.723-0.116
				c-0.117-0.157-0.255-0.527-0.293-0.725h-2.097v2.623H89.631z"/>
		</g>
	</g>
	<g>
		<g>
			<path fill="#1A5EAB" d="M93.979,28.918H46.022c-1.643,0-2.976,1.333-2.976,2.974v47.956c0,1.644,1.333,2.976,2.976,2.976h25.819
				V61.947h-7.024v-8.135h7.024v-6c0-6.963,4.251-10.754,10.463-10.754c2.976,0,5.533,0.221,6.278,0.321v7.276h-4.309
				c-3.377,0-4.031,1.607-4.031,3.961v5.195h8.056l-1.051,8.135h-7.005v20.876h13.736c1.643,0,2.976-1.332,2.976-2.976V31.892
				C96.954,30.25,95.621,28.918,93.979,28.918z"/>
		</g>
	</g>
</g>
</svg>
