<?xml version="1.0" encoding="utf-8"?>
<!-- Generator: Adobe Illustrator 16.0.0, SVG Export Plug-In . SVG Version: 6.00 Build 0)  -->
<!DOCTYPE svg PUBLIC "-//W3C//DTD SVG 1.1//EN" "http://www.w3.org/Graphics/SVG/1.1/DTD/svg11.dtd">
<svg version="1.1" id="Layer_1" xmlns="http://www.w3.org/2000/svg" xmlns:xlink="http://www.w3.org/1999/xlink" x="0px" y="0px"
	 width="320px" height="320px" viewBox="0 0 320 320" enable-background="new 0 0 320 320" xml:space="preserve">
<rect fill="#0F8770" width="320" height="320"/>
<rect x="80" y="80" fill="#0FB694" width="160" height="159.999"/>
<path fill="#0A0D16" d="M159.611,107.917v6.219v6.219v6.219v6.22v2.19v4.027c0,3.436-2.785,6.22-6.219,6.22h-1.556v9.328v7.385
	v1.943v9.328v9.328v9.329v9.327c0,2.576-2.088,4.663-4.663,4.663c-2.577,0-4.665-2.087-4.665-4.663v-9.327v-9.329v-9.328v-9.328
	v-1.943v-7.385v-9.328h-1.554c-3.435,0-6.219-2.784-6.219-6.22v-4.552v-1.666v-6.22v-6.219v-6.219v-6.219
	c0-1.718,1.393-3.109,3.11-3.109c1.717,0,3.109,1.392,3.109,3.109v6.219v6.219v6.219v6.22h3.11v-6.22v-6.219v-6.219v-6.219
	c0-1.718,1.392-3.109,3.109-3.109s3.11,1.392,3.11,3.109v6.219v6.219v6.219v6.22h3.109v-6.22v-6.219v-6.219v-6.219
	c0-1.718,1.393-3.109,3.109-3.109C158.219,104.808,159.611,106.199,159.611,107.917z"/>
<path fill="#0A0D16" d="M177.102,104.808c-4.508,0-8.162,3.653-8.162,8.161v16.325v12.827v3.497v16.325h6.996v11.271v9.328v9.329
	v9.327c0,2.576,2.088,4.663,4.664,4.663s4.664-2.087,4.664-4.663v-9.327v-9.329v-9.328v-11.271v-8.162v-8.163v-3.497v-12.827
	v-16.325C185.264,108.461,181.609,104.808,177.102,104.808z"/>
</svg>
