<?xml version="1.0" encoding="utf-8"?>
<!-- Generator: Adobe Illustrator 16.0.0, SVG Export Plug-In . SVG Version: 6.00 Build 0)  -->
<!DOCTYPE svg PUBLIC "-//W3C//DTD SVG 1.1//EN" "http://www.w3.org/Graphics/SVG/1.1/DTD/svg11.dtd">
<svg version="1.1" id="Layer_1" xmlns="http://www.w3.org/2000/svg" xmlns:xlink="http://www.w3.org/1999/xlink" x="0px" y="0px"
	 width="140px" height="140px" viewBox="0 0 140 140" enable-background="new 0 0 140 140" xml:space="preserve">
<circle fill="#FFFFFF" cx="70" cy="70" r="70"/>
<g>
	<g>
		<path fill="#1A5EAB" d="M52.075,111.296c0.352,0.059,1.077,0.234,1.41,0.391c0.059,0.258,0.098,0.688,0.098,1.078
			c0,0.234-0.02,0.451-0.039,0.587h-5.835c0.04-0.507,0.196-1.213,0.332-1.545c0.314-0.237,0.745-0.433,1.117-0.568v-6.562
			c-0.392-0.039-0.979-0.175-1.273-0.294c-0.097-0.448-0.117-1.233-0.059-1.644h5.66c0.059,0.45,0.04,1.233-0.06,1.665
			c-0.312,0.118-0.939,0.233-1.35,0.272V111.296z"/>
		<path fill="#1A5EAB" d="M64.097,107.635c0.372,0.511,0.94,1.684,1.117,2.486h0.233v-5.444c-0.489-0.039-1.233-0.175-1.585-0.294
			c-0.118-0.448-0.137-1.233-0.078-1.644h4.974c0.019,0.118,0.039,0.312,0.039,0.528c0,0.393-0.039,0.862-0.078,1.137
			c-0.275,0.118-0.803,0.233-1.156,0.272v8.735l-2.78,0.294l-3.956-5.778c-0.332-0.489-0.823-1.447-1.019-2.212h-0.235v5.58
			c0.353,0.059,0.999,0.216,1.332,0.391c0.099,0.393,0.138,1.275,0.059,1.665h-5.071c0.039-0.507,0.196-1.213,0.333-1.545
			c0.313-0.237,0.744-0.433,1.116-0.568v-6.562c-0.392-0.039-0.98-0.175-1.273-0.294c-0.098-0.448-0.117-1.233-0.059-1.644h4.562
			L64.097,107.635z"/>
		<path fill="#1A5EAB" d="M77,107.398c0.098-0.233,0.255-0.469,0.45-0.646c0.392-0.135,1.097-0.234,1.604-0.234v3.662
			c-0.548,0.059-1.311,0-1.723-0.138c-0.118-0.196-0.255-0.627-0.293-0.862H75.1v2.115c0.432,0.059,1.312,0.254,1.704,0.41
			c0.118,0.393,0.158,1.256,0.078,1.646h-6.148c0.04-0.507,0.196-1.213,0.334-1.545c0.312-0.237,0.743-0.433,1.115-0.568v-6.562
			c-0.392-0.039-0.979-0.175-1.273-0.294c-0.098-0.448-0.117-1.233-0.059-1.644h9.283v3.095c-0.627,0-1.489-0.099-2.056-0.273
			c-0.177-0.315-0.312-0.608-0.412-0.98H75.1v2.818H77z"/>
		<path fill="#1A5EAB" d="M92.276,107.966c0,3.663-2.292,5.778-5.778,5.778c-3.76,0-5.836-1.998-5.836-5.778
			c0-3.424,2.526-5.521,5.836-5.521C89.944,102.444,92.276,104.404,92.276,107.966z M86.498,111.864c1.801,0,2.74-1.487,2.74-3.898
			c0-2.093-1.095-3.661-2.74-3.661c-1.803,0-2.801,1.45-2.801,3.661C83.697,110.316,84.755,111.864,86.498,111.864z"/>
	</g>
</g>
<g>
	<g>
		<path fill="#1A5EAB" d="M101.709,49.529L78.967,72.269c-4.953,4.953-12.984,4.953-17.937,0L38.292,49.529l-0.001-0.002v31.708
			c0,3.505,2.838,6.342,6.342,6.342h50.734c3.503,0,6.344-2.837,6.344-6.342V49.527L101.709,49.529z"/>
		<path fill="#1A5EAB" d="M69.999,72.814c2.542,0,4.93-0.991,6.727-2.79l0.385-0.384H62.889l0.383,0.384
			C65.07,71.823,67.458,72.814,69.999,72.814z"/>
		<rect x="56.546" y="56.959" fill="#1A5EAB" width="26.906" height="3.169"/>
		<rect x="56.546" y="50.617" fill="#1A5EAB" width="26.906" height="3.169"/>
		<polygon fill="#1A5EAB" points="83.453,63.299 56.546,63.299 59.717,66.47 80.283,66.47 		"/>
		<path fill="#1A5EAB" d="M53.375,47.446h33.248v12.682l12.844-12.842L78.967,26.785v0.004c-2.478-2.478-5.722-3.715-8.968-3.715
			c-3.246,0-6.492,1.237-8.968,3.715v-0.004L40.533,47.286l12.842,12.842V47.446z"/>
	</g>
</g>
</svg>
