<?xml version="1.0" encoding="utf-8"?>
<!-- Generator: Adobe Illustrator 16.0.0, SVG Export Plug-In . SVG Version: 6.00 Build 0)  -->
<!DOCTYPE svg PUBLIC "-//W3C//DTD SVG 1.1//EN" "http://www.w3.org/Graphics/SVG/1.1/DTD/svg11.dtd">
<svg version="1.1" id="Layer_1" xmlns="http://www.w3.org/2000/svg" xmlns:xlink="http://www.w3.org/1999/xlink" x="0px" y="0px"
	 width="140px" height="140px" viewBox="0 0 140 140" enable-background="new 0 0 140 140" xml:space="preserve">
<g>
	<circle fill="#FFFFFF" cx="70" cy="70" r="70"/>
	<g>
		<g>
			<path fill="#1A5EAB" d="M49.969,110.239v-5.521c-0.567-0.039-1.41-0.215-1.782-0.334c-0.118-0.448-0.137-1.233-0.078-1.644h6.129
				c0.02,0.117,0.04,0.312,0.04,0.51c0,0.41-0.04,0.86-0.098,1.155c-0.274,0.118-0.921,0.253-1.292,0.293v5.229
				c0,3.016-1.45,5.247-4.504,6.364c-0.333-0.312-0.725-1.078-0.842-1.628C49.324,113.666,49.969,112.16,49.969,110.239z"/>
			<path fill="#1A5EAB" d="M67.71,107.967c0,3.663-2.29,5.778-5.777,5.778c-3.759,0-5.835-1.998-5.835-5.778
				c0-3.424,2.527-5.521,5.835-5.521C65.379,102.445,67.71,104.405,67.71,107.967z M61.933,111.865c1.803,0,2.743-1.488,2.743-3.898
				c0-2.094-1.096-3.661-2.743-3.661c-1.801,0-2.8,1.45-2.8,3.661C59.133,110.317,60.19,111.865,61.933,111.865z"/>
			<path fill="#1A5EAB" d="M71.605,104.639c-0.332-0.019-0.959-0.115-1.271-0.213c-0.079-0.393-0.098-1.315-0.02-1.666
				c1.351-0.117,3.544-0.197,4.974-0.197c3.036,0,5.17,0.803,5.17,2.821c0,1.058-0.646,1.938-1.899,2.23v0.178
				c1.468,0.272,2.486,1.097,2.486,2.272c0,2.466-2.311,3.443-5.267,3.443c-1.762,0-3.976-0.058-5.601-0.173
				c0.039-0.452,0.176-1.293,0.333-1.607c0.411-0.255,0.764-0.431,1.096-0.528V104.639z M74.523,106.949h1.077
				c1.195,0,1.841-0.351,1.841-1.37c0-0.861-0.843-1.235-2.056-1.235c-0.255,0-0.646,0.02-0.862,0.04V106.949z M74.523,111.61
				c0.353,0.037,0.725,0.058,1.136,0.058c1.547,0,2.331-0.371,2.331-1.486c0-1.02-0.92-1.468-2.271-1.468h-1.195V111.61z"/>
			<path fill="#1A5EAB" d="M88.739,104.208c-0.254-0.098-0.607-0.155-0.94-0.155c-0.822,0-1.213,0.373-1.213,0.918
				c0,2.058,5.404,1.078,5.404,5.073c0,2.528-2.017,3.701-4.602,3.701c-1.43,0-2.82-0.295-4.033-0.96
				c-0.06-0.255-0.08-0.665-0.08-0.978c0-0.647,0.118-1.353,0.255-1.783c0.862,0,1.958,0.138,2.702,0.393v1.213
				c0.411,0.197,0.96,0.295,1.469,0.295c0.921,0,1.391-0.395,1.391-1.155c0-2.272-5.426-1.138-5.426-5.131
				c0-2.018,1.588-3.291,4.114-3.291c1.332,0,2.742,0.275,3.838,0.86c0.02,0.157,0.039,0.49,0.039,0.666
				c0,0.569-0.117,1.353-0.274,1.842c-0.9,0-2.036-0.232-2.644-0.587V104.208z"/>
		</g>
	</g>
	<g>
		<g>
			<path fill="#1A5EAB" d="M101.709,36.845H82.683v-6.342c0-3.504-2.839-6.342-6.342-6.342H63.658c-3.502,0-6.342,2.838-6.342,6.342
				v6.342H38.291c-3.502,0-6.342,2.839-6.342,6.342v17.439h76.104V43.188C108.052,39.684,105.211,36.845,101.709,36.845z
				 M76.341,36.845H63.658v-6.342h12.683V36.845z"/>
			<path fill="#1A5EAB" d="M76.341,66.968H63.658v-3.171h-31.71v17.441c0,3.502,2.84,6.34,6.342,6.34h63.419
				c3.502,0,6.343-2.838,6.343-6.34V63.797H76.341V66.968z"/>
		</g>
	</g>
</g>
</svg>
