<?xml version="1.0" encoding="utf-8"?>
<!-- Generator: Adobe Illustrator 16.0.0, SVG Export Plug-In . SVG Version: 6.00 Build 0)  -->
<!DOCTYPE svg PUBLIC "-//W3C//DTD SVG 1.1//EN" "http://www.w3.org/Graphics/SVG/1.1/DTD/svg11.dtd">
<svg version="1.1" id="Layer_1" xmlns="http://www.w3.org/2000/svg" xmlns:xlink="http://www.w3.org/1999/xlink" x="0px" y="0px"
	 width="319.999px" height="320px" viewBox="1 0.193 319.999 320" enable-background="new 1 0.193 319.999 320"
	 xml:space="preserve">
<rect x="1" y="0.193" fill="#094873" width="319.999" height="320"/>
<g>
	<rect x="81" y="80.193" fill="#1A5EAB" width="159.999" height="159.999"/>
	<g>
		<path fill="#FFFFFF" d="M198.139,171.451c0,20.363-16.502,36.867-36.867,36.867c-20.363,0-36.871-16.504-36.871-36.867
			c0-20.364,16.507-36.87,36.871-36.87C181.637,134.581,198.139,151.087,198.139,171.451z"/>
		<g>
			<path d="M163.818,202.885l0.055-10.437c1.809-0.601,3.161-1.616,3.828-2.476c2.049-2.634,1.511-5.826,1.439-6.181
				c-0.225-1.212-1.287-2.085-2.519-2.085h-11.021c-1.231,0-2.286,0.873-2.516,2.085c-0.069,0.354-0.61,3.547,1.441,6.181
				c0.676,0.87,2.049,1.924,3.902,2.521l0.055,10.388c-2.252-0.197-4.466-0.624-6.611-1.277l-1.573,5.092
				c3.471,1.068,7.089,1.617,10.756,1.644v0.009c0.043,0,0.076-0.006,0.122-0.006c0.042,0,0.081,0.006,0.12,0.006v-0.009
				c3.664-0.024,7.284-0.575,10.75-1.644l-1.568-5.092C168.312,202.27,166.086,202.691,163.818,202.885z"/>
			<g>
				<g>
					<path d="M193.491,152.936c5.909-8.234,4.968-14.587,1.835-25.785c-1.999-7.163-3.003-9.195-4.366-11.742
						c-1.159-2.159-2.962-5.585-6.792-1.367c-8.018,8.827-11.341,16.829-13.396,20.965c-3.055-0.847-6.265-1.312-9.584-1.344v-0.008
						v-0.009c-0.043,0-0.084,0.006-0.127,0.006l0,0v-0.006c-0.021,0-0.041,0-0.065,0.002c-0.017-0.002-0.035-0.002-0.058-0.002
						v0.006l0,0c-0.041,0-0.086-0.006-0.129-0.006v0.009v0.008c-3.315,0.031-6.526,0.497-9.584,1.344
						c-2.054-4.136-5.376-12.138-13.395-20.965c-3.827-4.218-5.633-0.792-6.791,1.367c-1.364,2.547-2.368,4.579-4.368,11.742
						c-3.134,11.198-4.075,17.551,1.834,25.785c-2.97,5.354-4.666,11.512-4.666,18.058c0,13.582,7.387,26.107,19.278,32.693
						c0.731,0.405,1.487,0.791,2.241,1.146l0.56,0.26l0.025-0.005c-1.918-3.87-2.95-7.906-2.774-11.771
						c0.027-3.354,1.01-8.131,5.032-13.316c0.536-0.688,14.513-15.281,5.165-40.043c2.447-0.62,5.002-0.95,7.63-0.965
						c2.637,0.015,5.192,0.345,7.641,0.965c-9.352,24.762,4.626,39.355,5.162,40.043c4.021,5.186,5.007,9.964,5.03,13.316
						c0.175,3.865-0.854,7.901-2.773,11.771l0.027,0.005l0.561-0.26c0.752-0.354,1.51-0.739,2.239-1.146
						c11.892-6.586,19.28-19.111,19.28-32.693C198.161,164.447,196.465,158.29,193.491,152.936z M143.585,172.432
						c-3.1,0-5.607-2.512-5.607-5.604s2.507-5.601,5.607-5.601c3.094,0,5.601,2.506,5.601,5.601
						C149.186,169.921,146.679,172.432,143.585,172.432z M178.412,172.432c-3.096,0-5.602-2.512-5.602-5.604
						s2.506-5.601,5.602-5.601c3.1,0,5.605,2.506,5.605,5.601C184.018,169.921,181.512,172.432,178.412,172.432z"/>
				</g>
			</g>
		</g>
	</g>
</g>
</svg>
