<?xml version="1.0" encoding="utf-8"?>
<!-- Generator: Adobe Illustrator 16.0.0, SVG Export Plug-In . SVG Version: 6.00 Build 0)  -->
<!DOCTYPE svg PUBLIC "-//W3C//DTD SVG 1.1//EN" "http://www.w3.org/Graphics/SVG/1.1/DTD/svg11.dtd">
<svg version="1.1" id="Layer_1" xmlns="http://www.w3.org/2000/svg" xmlns:xlink="http://www.w3.org/1999/xlink" x="0px" y="0px"
	 width="222px" height="66px" viewBox="0 0 222 66" enable-background="new 0 0 222 66" xml:space="preserve">
<g>
	<polygon fill="#FFFFFF" points="188.956,33 221.999,0 0,0 0,66 222.001,66 	"/>
	<g>
		<g>
			<g>
				<path fill="#0A0D16" d="M53.838,24.271c1.506,0,2.94,0.264,3.992,1.076c1.075,0.837,1.792,2.175,1.792,4.59
					c0,2.317-0.645,3.8-1.769,4.685c-1.004,0.788-2.342,1.1-4.111,1.1H51.4v5.043h-3.872V24.271H53.838z M51.4,32.397h2.247
					c0.765,0,1.22-0.144,1.506-0.43c0.359-0.335,0.454-0.98,0.454-1.96c0-1.22-0.191-1.769-0.526-2.056
					c-0.334-0.287-0.789-0.358-1.529-0.358H51.4V32.397z"/>
				<path fill="#0A0D16" d="M70.637,24.271v6.358h5.187v-6.358h3.848v16.493h-3.848V34.07h-5.187v6.693h-3.872V24.271H70.637z"/>
				<path fill="#0A0D16" d="M99.483,39.281c-1.124,1.1-2.773,1.841-5.307,1.841c-2.485,0-4.158-0.693-5.234-1.816
					c-1.41-1.459-1.864-3.657-1.864-6.621s0.454-5.354,2.031-6.932c1.099-1.099,2.749-1.84,5.282-1.84
					c2.533,0,4.183,0.717,5.258,1.816c1.41,1.434,1.865,3.681,1.865,6.645C101.515,35.362,101.06,37.704,99.483,39.281z
					 M96.543,27.976c-0.43-0.478-1.171-0.788-2.175-0.788c-1.076,0-1.841,0.311-2.342,0.908c-0.622,0.764-0.837,1.983-0.837,4.446
					c0,2.365,0.191,3.799,0.86,4.54c0.431,0.479,1.147,0.765,2.175,0.765c1.1,0,1.84-0.311,2.342-0.908
					c0.622-0.765,0.837-2.007,0.837-4.422C97.404,30.056,97.188,28.693,96.543,27.976z"/>
				<path fill="#0A0D16" d="M119.771,24.271v3.442h-4.23v13.051h-3.871V27.713h-4.208v-3.442H119.771z"/>
				<path fill="#0A0D16" d="M138.124,39.281c-1.123,1.1-2.773,1.841-5.307,1.841c-2.486,0-4.158-0.693-5.234-1.816
					c-1.41-1.459-1.863-3.657-1.863-6.621s0.453-5.354,2.031-6.932c1.1-1.099,2.748-1.84,5.281-1.84s4.184,0.717,5.258,1.816
					c1.412,1.434,1.865,3.681,1.865,6.645C140.155,35.362,139.702,37.704,138.124,39.281z M135.185,27.976
					c-0.432-0.478-1.172-0.788-2.176-0.788c-1.076,0-1.84,0.311-2.342,0.908c-0.623,0.764-0.838,1.983-0.838,4.446
					c0,2.365,0.191,3.799,0.861,4.54c0.43,0.479,1.146,0.765,2.176,0.765c1.1,0,1.84-0.311,2.342-0.908
					c0.621-0.765,0.836-2.007,0.836-4.422C136.044,30.056,135.829,28.693,135.185,27.976z"/>
				<path fill="#0A0D16" d="M155.901,28.215c-1.002-0.693-2.461-0.956-3.465-0.956c-1.172,0-1.936,0.311-1.936,1.601
					c0,2.511,7.576,1.029,7.576,7.004c0,1.912-0.908,3.251-2.078,4.039c-1.125,0.766-2.678,1.147-4.279,1.147
					c-1.744,0-4.111-0.431-5.449-1.649l1.912-2.844c1.074,0.86,2.676,1.219,3.92,1.219c1.123,0,2.055-0.286,2.055-1.721
					c0-2.845-7.576-1.219-7.576-7.099c0-1.745,0.764-2.868,1.865-3.682c1.193-0.884,2.652-1.29,4.301-1.29
					c1.578,0,3.705,0.383,4.973,1.435L155.901,28.215z"/>
			</g>
		</g>
	</g>
</g>
</svg>
