<?xml version="1.0" encoding="utf-8"?>
<!-- Generator: Adobe Illustrator 16.0.0, SVG Export Plug-In . SVG Version: 6.00 Build 0)  -->
<!DOCTYPE svg PUBLIC "-//W3C//DTD SVG 1.1//EN" "http://www.w3.org/Graphics/SVG/1.1/DTD/svg11.dtd">
<svg version="1.1" id="Layer_1" xmlns="http://www.w3.org/2000/svg" xmlns:xlink="http://www.w3.org/1999/xlink" x="0px" y="0px"
	 width="39.979px" height="32.49px" viewBox="0 0 39.979 32.49" enable-background="new 0 0 39.979 32.49" xml:space="preserve">
<path fill="#E6E4E2" d="M39.979,3.846c-1.471,0.653-3.051,1.094-4.711,1.292c1.693-1.016,2.994-2.622,3.606-4.538
	c-1.585,0.94-3.34,1.623-5.209,1.99C32.171,0.996,30.039,0,27.68,0c-4.53,0-8.202,3.672-8.202,8.202
	c0,0.643,0.071,1.269,0.212,1.869C12.872,9.729,6.829,6.463,2.783,1.501c-0.705,1.212-1.111,2.62-1.111,4.124
	c0,2.846,1.449,5.355,3.649,6.827c-1.344-0.043-2.609-0.412-3.715-1.026c-0.001,0.034-0.001,0.069-0.001,0.104
	c0,3.975,2.828,7.289,6.58,8.042c-0.688,0.188-1.413,0.288-2.161,0.288c-0.529,0-1.042-0.052-1.542-0.146
	c1.043,3.258,4.073,5.629,7.662,5.695C9.336,27.608,5.8,28.92,1.957,28.92c-0.662,0-1.315-0.039-1.957-0.115
	c3.63,2.328,7.941,3.686,12.573,3.686c15.087,0,23.338-12.498,23.338-23.337c0-0.355-0.009-0.709-0.024-1.062
	C37.489,6.936,38.88,5.49,39.979,3.846"/>
</svg>
