<?xml version="1.0" encoding="utf-8"?>
<!-- Generator: Adobe Illustrator 16.0.0, SVG Export Plug-In . SVG Version: 6.00 Build 0)  -->
<!DOCTYPE svg PUBLIC "-//W3C//DTD SVG 1.1//EN" "http://www.w3.org/Graphics/SVG/1.1/DTD/svg11.dtd">
<svg version="1.1" id="Layer_1" xmlns="http://www.w3.org/2000/svg" xmlns:xlink="http://www.w3.org/1999/xlink" x="0px" y="0px"
	 width="140px" height="140px" viewBox="0 0 140 140" enable-background="new 0 0 140 140" xml:space="preserve">
<g>
	<circle fill="#FFFFFF" cx="70" cy="70" r="70"/>
	<g>
		<g>
			<path fill="#1A5EAB" d="M36.831,107.399c0.098-0.233,0.255-0.471,0.449-0.646c0.392-0.136,1.098-0.235,1.606-0.235v3.663
				c-0.548,0.058-1.312,0-1.723-0.138c-0.117-0.196-0.253-0.627-0.294-0.862h-1.937v2.115c0.43,0.059,1.312,0.253,1.703,0.411
				c0.117,0.392,0.156,1.255,0.078,1.645h-6.149c0.04-0.508,0.196-1.213,0.333-1.545c0.314-0.237,0.744-0.433,1.117-0.568v-6.561
				c-0.392-0.04-0.979-0.176-1.272-0.295c-0.099-0.448-0.118-1.233-0.059-1.644h9.282v3.094c-0.626,0-1.488-0.098-2.056-0.273
				c-0.176-0.314-0.313-0.607-0.412-0.979h-2.564v2.818H36.831z"/>
			<path fill="#1A5EAB" d="M53.573,107.967c0,3.663-2.292,5.778-5.777,5.778c-3.76,0-5.834-1.998-5.834-5.778
				c0-3.424,2.525-5.521,5.834-5.521C51.243,102.445,53.573,104.405,53.573,107.967z M47.795,111.865
				c1.802,0,2.742-1.488,2.742-3.898c0-2.094-1.096-3.661-2.742-3.661c-1.802,0-2.8,1.45-2.8,3.661
				C44.996,110.317,46.053,111.865,47.795,111.865z"/>
			<path fill="#1A5EAB" d="M63.382,111.355c0.059-0.391,0.216-0.998,0.393-1.408c0.47-0.1,1.41-0.158,1.998-0.1v3.505H56.02
				c0.039-0.508,0.195-1.213,0.332-1.545c0.314-0.237,0.744-0.433,1.118-0.568v-6.561c-0.393-0.04-0.98-0.176-1.274-0.295
				c-0.098-0.448-0.118-1.233-0.059-1.644h6.228c0.059,0.37,0.019,1.233-0.079,1.665c-0.451,0.117-1.332,0.233-1.899,0.273v6.892
				C61.287,111.57,62.56,111.513,63.382,111.355z"/>
			<path fill="#1A5EAB" d="M75.091,111.355c0.059-0.391,0.215-0.998,0.392-1.408c0.47-0.1,1.411-0.158,1.997-0.1v3.505h-9.751
				c0.039-0.508,0.194-1.213,0.332-1.545c0.314-0.237,0.744-0.433,1.117-0.568v-6.561c-0.392-0.04-0.98-0.176-1.273-0.295
				c-0.098-0.448-0.118-1.233-0.06-1.644h6.228c0.06,0.37,0.02,1.233-0.078,1.665c-0.452,0.117-1.333,0.233-1.9,0.273v6.892
				C72.996,111.57,74.269,111.513,75.091,111.355z"/>
			<path fill="#1A5EAB" d="M91.011,107.967c0,3.663-2.292,5.778-5.777,5.778c-3.76,0-5.835-1.998-5.835-5.778
				c0-3.424,2.526-5.521,5.835-5.521C88.681,102.445,91.011,104.405,91.011,107.967z M85.234,111.865
				c1.802,0,2.742-1.488,2.742-3.898c0-2.094-1.097-3.661-2.742-3.661c-1.802,0-2.8,1.45-2.8,3.661
				C82.434,110.317,83.492,111.865,85.234,111.865z"/>
			<path fill="#1A5EAB" d="M97.178,106.286l0.607,2.7c0.138,0.628,0.333,1.568,0.353,2.153h0.233
				c0.02-0.585,0.138-1.546,0.314-2.173l1.606-6.129l2.996-0.295l1.488,6.443c0.155,0.628,0.273,1.586,0.293,2.153h0.236
				c0.019-0.585,0.214-1.525,0.352-2.113l0.646-2.646c0.077-0.35,0.352-1.077,0.606-1.447c-0.275-0.078-0.686-0.235-0.882-0.373
				c-0.175-0.508-0.254-1.215-0.254-1.82h4.522c0,0.567-0.194,1.468-0.371,1.958c-0.234,0.1-0.646,0.195-0.94,0.235l-2.721,8.479
				l-2.938,0.294l-1.409-5.955c-0.158-0.646-0.295-1.763-0.295-2.408h-0.233c-0.021,0.646-0.157,1.743-0.333,2.408l-1.47,5.661
				l-3.094,0.294l-2.623-8.754c-0.256-0.077-0.705-0.314-0.862-0.47c-0.138-0.413-0.235-1.215-0.235-1.743h5.189
				c0,0.625-0.156,1.37-0.312,1.88c-0.196,0.118-0.744,0.273-1.039,0.333C96.806,105.266,97.081,105.892,97.178,106.286z"/>
		</g>
	</g>
	<g>
		<path fill="#1A5EAB" d="M105.702,38.851c-2.44,1.082-5.062,1.815-7.814,2.14c2.811-1.681,4.968-4.349,5.982-7.527
			c-2.629,1.563-5.541,2.693-8.642,3.302c-2.481-2.643-6.02-4.296-9.934-4.296c-7.513,0-13.607,6.093-13.607,13.608
			c0,1.066,0.118,2.104,0.352,3.102c-11.31-0.568-21.338-5.986-28.051-14.218c-1.17,2.008-1.843,4.349-1.843,6.838
			c0,4.723,2.403,8.89,6.055,11.328c-2.23-0.07-4.329-0.681-6.164-1.701c-0.002,0.056-0.002,0.114-0.002,0.171
			c0,6.593,4.691,12.093,10.918,13.346c-1.143,0.311-2.346,0.476-3.586,0.476c-0.877,0-1.73-0.084-2.561-0.245
			c1.732,5.406,6.758,9.34,12.713,9.451c-4.658,3.651-10.525,5.826-16.901,5.826c-1.099,0-2.183-0.063-3.248-0.191
			c6.024,3.862,13.176,6.113,20.861,6.113c25.031,0,38.721-20.733,38.721-38.718c0-0.589-0.014-1.177-0.04-1.761
			C101.571,43.977,103.878,41.578,105.702,38.851"/>
	</g>
</g>
</svg>
