<?xml version="1.0" encoding="utf-8"?>
<!-- Generator: Adobe Illustrator 16.0.0, SVG Export Plug-In . SVG Version: 6.00 Build 0)  -->
<!DOCTYPE svg PUBLIC "-//W3C//DTD SVG 1.1//EN" "http://www.w3.org/Graphics/SVG/1.1/DTD/svg11.dtd">
<svg version="1.1" id="Layer_1" xmlns="http://www.w3.org/2000/svg" xmlns:xlink="http://www.w3.org/1999/xlink" x="0px" y="0px"
	 width="320px" height="320px" viewBox="0 0 320 320" enable-background="new 0 0 320 320" xml:space="preserve">
<rect fill="#9E1D21" width="320" height="320"/>
<rect x="80" y="80" fill="#D11820" width="160" height="159.998"/>
<g>
	<polygon fill="#FFFFFF" points="137.008,113.736 137.008,135.557 140.316,147.204 150.045,155.375 161.988,157.125 
		172.226,152.844 180.734,135.557 178.842,114.71 	"/>
	<path fill="#0A0D16" d="M134.393,111.071v24.485c0,12.469,9.322,22.752,21.378,24.281v46.07c-3.435,0-6.219,2.783-6.219,6.219
		h6.219h6.218h6.219c0-3.436-2.783-6.219-6.219-6.219v-46.07c12.054-1.527,21.377-11.812,21.377-24.281v-24.485H134.393z
		 M177.146,135.557c0,10.073-8.193,18.266-18.266,18.266c-10.074,0-18.27-8.193-18.27-18.266V117.29h36.535V135.557z"/>
	<path fill="#9E1D21" d="M146.83,126.424v9.133c0,6.643,5.406,12.047,12.051,12.047v6.219c10.072,0,18.266-8.193,18.266-18.266
		v-9.133H146.83z"/>
</g>
</svg>
